HIERARCHY
ROOT Hips
{
	OFFSET 0.000000 0.000000 0.000000
	CHANNELS 6 Xposition Yposition Zposition Xrotation Yrotation Zrotation
	JOINT Spine
	{
		OFFSET 0.000000 0.049001 0.073502
		CHANNELS 3 Xrotation Yrotation Zrotation
		JOINT Spine1
		{
			OFFSET 0.000000 0.017018 0.096514
			CHANNELS 3 Xrotation Yrotation Zrotation
			JOINT Spine2
			{
				OFFSET 0.000000 0.008542 0.097630
				CHANNELS 3 Xrotation Yrotation Zrotation
				JOINT Spine3
				{
					OFFSET 0.000000 0.000000 0.098003
					CHANNELS 3 Xrotation Yrotation Zrotation
					JOINT Neck
					{
						OFFSET 0.000000 -0.036751 0.257258
						CHANNELS 3 Xrotation Yrotation Zrotation
						JOINT Head
						{
							OFFSET 0.000000 -0.023400 0.132707
							CHANNELS 3 Xrotation Yrotation Zrotation
							End Site
							{
								OFFSET 0.000000 0.000000 0.000000
							}
						}
					}
					JOINT RightShoulder
					{
						OFFSET -0.030410 -0.050683 0.164214
						CHANNELS 3 Xrotation Yrotation Zrotation
						JOINT RightArm
						{
							OFFSET -0.151036 0.000000 0.000000
							CHANNELS 3 Xrotation Yrotation Zrotation
							JOINT RightForeArm
							{
								OFFSET -0.279942 0.000000 0.000000
								CHANNELS 3 Xrotation Yrotation Zrotation
								JOINT RightHand
								{
									OFFSET -0.265034 0.000000 0.000000
									CHANNELS 3 Xrotation Yrotation Zrotation
									JOINT RightHandEnd
									{
										OFFSET -0.071866 0.000000 0.000000
										CHANNELS 3 Xrotation Yrotation Zrotation
										End Site
										{
											OFFSET 0.000000 0.000000 0.000000
										}
									}
									JOINT RightHandThumb1
									{
										OFFSET -0.028746 -0.047911 -0.019164
										CHANNELS 3 Xrotation Yrotation Zrotation
										End Site
										{
											OFFSET 0.000000 0.000000 0.000000
										}
									}
								}
							}
						}
					}
					JOINT LeftShoulder
					{
						OFFSET 0.030410 -0.050683 0.164214
						CHANNELS 3 Xrotation Yrotation Zrotation
						JOINT LeftArm
						{
							OFFSET 0.151036 0.000000 0.000000
							CHANNELS 3 Xrotation Yrotation Zrotation
							JOINT LeftForeArm
							{
								OFFSET 0.279942 0.000000 0.000000
								CHANNELS 3 Xrotation Yrotation Zrotation
								JOINT LeftHand
								{
									OFFSET 0.265034 0.000000 0.000000
									CHANNELS 3 Xrotation Yrotation Zrotation
									JOINT LeftHandEnd
									{
										OFFSET 0.071866 0.000000 0.000000
										CHANNELS 3 Xrotation Yrotation Zrotation
										End Site
										{
											OFFSET 0.000000 0.000000 0.000000
										}
									}
									JOINT LeftHandThumb1
									{
										OFFSET 0.028746 -0.047911 -0.019164
										CHANNELS 3 Xrotation Yrotation Zrotation
										End Site
										{
											OFFSET 0.000000 0.000000 0.000000
										}
									}
								}
							}
						}
					}
				}
			}
		}
	}
	JOINT RightUpLeg
	{
		OFFSET -0.090216 0.000000 -0.026355
		CHANNELS 3 Xrotation Yrotation Zrotation
		JOINT RightLeg
		{
			OFFSET 0.000000 0.000000 -0.402871
			CHANNELS 3 Xrotation Yrotation Zrotation
			JOINT RightFoot
			{
				OFFSET 0.000000 0.000000 -0.414145
				CHANNELS 3 Xrotation Yrotation Zrotation
				JOINT RightToeBase
				{
					OFFSET 0.000000 -0.146359 -0.053270
					CHANNELS 3 Xrotation Yrotation Zrotation
					End Site
					{
						OFFSET 0.000000 0.000000 0.000000
					}
				}
			}
		}
	}
	JOINT LeftUpLeg
	{
		OFFSET 0.090216 0.000000 -0.026355
		CHANNELS 3 Xrotation Yrotation Zrotation
		JOINT LeftLeg
		{
			OFFSET 0.000000 0.000000 -0.402871
			CHANNELS 3 Xrotation Yrotation Zrotation
			JOINT LeftFoot
			{
				OFFSET 0.000000 0.000000 -0.414145
				CHANNELS 3 Xrotation Yrotation Zrotation
				JOINT LeftToeBase
				{
					OFFSET 0.000000 -0.146359 -0.053270
					CHANNELS 3 Xrotation Yrotation Zrotation
					End Site
					{
						OFFSET 0.000000 0.000000 0.000000
					}
				}
			}
		}
	}
}
MOTION
Frames: 13
Frame Time: 0.033333
-0.354726 0.274086 0.914811 4.734700 -5.409000 94.904300 1.271600 1.818600 0.004300 -1.103700 1.269500 0.113300 7.501600 0.297900 -0.948600 2.990500 0.174800 -0.495700 9.446500 1.810500 0.009000 5.085200 1.601200 2.066100 5.187000 7.254200 -7.402900 -6.648700 -23.845100 10.062500 0.000000 0.000000 1.175900 -15.966900 8.640500 -0.938100 0.000000 0.000000 0.000000 0.000000 0.000000 0.000000 5.847000 -7.173200 9.642900 13.309200 12.340200 -20.073700 0.000000 0.000000 0.131200 -16.412500 -13.636900 0.867500 0.000000 0.000000 0.000000 0.000000 0.000000 0.000000 -8.784700 7.831500 -19.735200 29.363900 0.000000 0.000000 -4.264800 5.562600 -13.704900 -10.439000 0.000000 0.000000 3.302700 9.915200 19.183100 7.706700 0.000000 0.000000 -0.248600 -11.361300 -4.312800 -11.397700 0.000000 0.000000 
-0.354846 0.274381 0.914801 4.739900 -5.424200 94.907800 1.279300 1.822400 0.003000 -1.102000 1.268400 0.112500 7.503300 0.305300 -0.940100 2.992600 0.173400 -0.500700 9.487000 1.801200 0.022600 5.035100 1.579600 2.085700 5.191500 7.299900 -7.370100 -6.629900 -23.879800 10.034100 0.000000 0.000000 1.182200 -16.031000 8.596600 -0.936200 0.000000 0.000000 0.000000 0.000000 0.000000 0.000000 5.853400 -7.201600 9.607800 13.334200 12.368700 -20.050500 0.000000 0.000000 0.122300 -16.418500 -13.649400 0.897400 0.000000 0.000000 0.000000 0.000000 0.000000 0.000000 -8.782000 7.849000 -19.713700 29.372300 0.000000 0.000000 -4.256100 5.561300 -13.723300 -10.472800 0.000000 0.000000 3.322600 9.939900 19.226700 7.685100 0.000000 0.000000 -0.243900 -11.394100 -4.351500 -11.381500 0.000000 0.000000 
-0.355013 0.274752 0.914761 4.739000 -5.439700 94.877900 1.292800 1.825900 0.002800 -1.096700 1.264400 0.112900 7.483400 0.312900 -0.915100 2.991100 0.167500 -0.494800 9.558600 1.794600 0.028600 4.977100 1.560200 2.073400 5.199100 7.341700 -7.323700 -6.605100 -23.886400 10.017800 0.000000 0.000000 1.151600 -16.102900 8.526300 -0.967200 0.000000 0.000000 0.000000 0.000000 0.000000 0.000000 5.878500 -7.247100 9.580100 13.352300 12.417100 -20.046800 0.000000 0.000000 0.142800 -16.416700 -13.681800 0.894200 0.000000 0.000000 0.000000 0.000000 0.000000 0.000000 -8.795000 7.860400 -19.652900 29.389300 0.000000 0.000000 -4.242900 5.547700 -13.757500 -10.501200 0.000000 0.000000 3.335500 9.967600 19.304400 7.667400 0.000000 0.000000 -0.246000 -11.463800 -4.404300 -11.351300 0.000000 0.000000 
-0.355186 0.275115 0.914695 4.737900 -5.459100 94.799300 1.316200 1.831300 0.003200 -1.085300 1.258700 0.114500 7.444500 0.322900 -0.866000 2.984100 0.155200 -0.477300 9.641300 1.804700 0.025100 4.936200 1.547400 2.040100 5.199700 7.360600 -7.262800 -6.571800 -23.839800 10.003400 0.000000 0.000000 1.125400 -16.135500 8.474300 -1.030500 0.000000 0.000000 0.000000 0.000000 0.000000 0.000000 5.907600 -7.289800 9.564600 13.385200 12.450900 -20.043000 0.000000 0.000000 0.162100 -16.391000 -13.711300 0.858200 0.000000 0.000000 0.000000 0.000000 0.000000 0.000000 -8.831700 7.874600 -19.545400 29.437600 0.000000 0.000000 -4.232000 5.513300 -13.787600 -10.512900 0.000000 0.000000 3.344100 9.998900 19.396800 7.658900 0.000000 0.000000 -0.254300 -11.526600 -4.436400 -11.342400 0.000000 0.000000 
-0.355351 0.275496 0.914611 4.760500 -5.485400 94.683800 1.349600 1.852700 0.009400 -1.073200 1.256500 0.113300 7.404800 0.334700 -0.796100 2.973600 0.146400 -0.450200 9.715600 1.828700 0.019700 4.914400 1.528100 2.023100 5.192900 7.366100 -7.203400 -6.550000 -23.776100 9.972700 0.000000 0.000000 1.148800 -16.116800 8.478500 -1.057400 0.000000 0.000000 0.000000 0.000000 0.000000 0.000000 5.899300 -7.294900 9.531400 13.446100 12.412800 -19.983600 0.000000 0.000000 0.139200 -16.368400 -13.694900 0.835900 0.000000 0.000000 0.000000 0.000000 0.000000 0.000000 -8.897200 7.928900 -19.417800 29.549200 0.000000 0.000000 -4.238900 5.474500 -13.778800 -10.525200 0.000000 0.000000 3.359600 10.058500 19.466700 7.649300 0.000000 0.000000 -0.258700 -11.551200 -4.395200 -11.342200 0.000000 0.000000 
-0.355493 0.275923 0.914486 4.811400 -5.513800 94.555600 1.379100 1.899100 0.015400 -1.057000 1.258400 0.123500 7.369500 0.344800 -0.725400 2.965200 0.141000 -0.421300 9.782700 1.856200 0.022600 4.887600 1.492500 2.033900 5.185600 7.380800 -7.162700 -6.552700 -23.747400 9.946000 0.000000 0.000000 1.203100 -16.058500 8.524900 -1.026200 0.000000 0.000000 0.000000 0.000000 0.000000 0.000000 5.853600 -7.248200 9.473600 13.499600 12.294200 -19.862700 0.000000 0.000000 0.085800 -16.395700 -13.633800 0.843800 0.000000 0.000000 0.000000 0.000000 0.000000 0.000000 -8.987800 8.025500 -19.288400 29.718400 0.000000 0.000000 -4.266600 5.447900 -13.744100 -10.545700 0.000000 0.000000 3.378800 10.149700 19.506400 7.639900 0.000000 0.000000 -0.257000 -11.563600 -4.292800 -11.337000 0.000000 0.000000 
-0.355630 0.276365 0.914301 4.877900 -5.531000 94.430600 1.393400 1.961500 0.022600 -1.047500 1.268900 0.128900 7.343300 0.360600 -0.657600 2.960100 0.131600 -0.391600 9.855400 1.862100 0.033200 4.844600 1.464800 2.061000 5.185400 7.404900 -7.130200 -6.564300 -23.761000 9.952800 0.000000 0.000000 1.225900 -15.997500 8.552800 -0.980800 0.000000 0.000000 0.000000 0.000000 0.000000 0.000000 5.817900 -7.211100 9.414500 13.521200 12.188400 -19.742100 0.000000 0.000000 0.044600 -16.438700 -13.584400 0.850700 0.000000 0.000000 0.000000 0.000000 0.000000 0.000000 -9.101100 8.139600 -19.156700 29.910500 0.000000 0.000000 -4.308400 5.429700 -13.724200 -10.554200 0.000000 0.000000 3.383100 10.258100 19.536600 7.639700 0.000000 0.000000 -0.248200 -11.600200 -4.196200 -11.365300 0.000000 0.000000 
-0.355755 0.276761 0.914113 4.933000 -5.549000 94.318200 1.399800 2.020500 0.028400 -1.037800 1.283300 0.130500 7.317700 0.381800 -0.599200 2.960500 0.114600 -0.365400 9.936500 1.836600 0.051000 4.805500 1.464700 2.101200 5.198700 7.414000 -7.087800 -6.558300 -23.780800 9.996600 0.000000 0.000000 1.198700 -16.003100 8.517200 -0.966100 0.000000 0.000000 0.000000 0.000000 0.000000 0.000000 5.828900 -7.232000 9.376500 13.517700 12.167300 -19.678000 0.000000 0.000000 0.021500 -16.402400 -13.561000 0.856300 0.000000 0.000000 0.000000 0.000000 0.000000 0.000000 -9.198300 8.229000 -19.021600 30.071100 0.000000 0.000000 -4.347700 5.401100 -13.747900 -10.536300 0.000000 0.000000 3.384400 10.350400 19.586400 7.650000 0.000000 0.000000 -0.243600 -11.649300 -4.156000 -11.436000 0.000000 0.000000 
-0.355841 0.277122 0.914009 4.971500 -5.577900 94.237200 1.404900 2.073100 0.033600 -1.025600 1.293400 0.134900 7.297100 0.400400 -0.563300 2.964800 0.097600 -0.347500 10.018100 1.797800 0.076100 4.794300 1.480300 2.159800 5.204100 7.401600 -7.020800 -6.528100 -23.798000 10.022200 0.000000 0.000000 1.166500 -16.077400 8.441700 -0.970200 0.000000 0.000000 0.000000 0.000000 0.000000 0.000000 5.858700 -7.282900 9.355100 13.523500 12.191800 -19.675000 0.000000 0.000000 -0.001900 -16.307000 -13.532600 0.886000 0.000000 0.000000 0.000000 0.000000 0.000000 0.000000 -9.246900 8.296500 -18.929000 30.175900 0.000000 0.000000 -4.378100 5.365500 -13.774500 -10.510900 0.000000 0.000000 3.403200 10.418600 19.648800 7.656500 0.000000 0.000000 -0.247900 -11.669400 -4.149900 -11.475400 0.000000 0.000000 
-0.355851 0.277487 0.913989 4.991800 -5.618100 94.209300 1.412200 2.111400 0.035400 -1.015100 1.299000 0.136000 7.283700 0.406300 -0.551100 2.967100 0.088400 -0.338300 10.100100 1.780600 0.102000 4.802100 1.484400 2.221400 5.195200 7.387100 -6.948400 -6.503500 -23.839900 10.002200 0.000000 0.000000 1.155200 -16.113500 8.374500 -0.969900 0.000000 0.000000 0.000000 0.000000 0.000000 0.000000 5.868600 -7.293200 9.326100 13.539400 12.176700 -19.691400 0.000000 0.000000 -0.036500 -16.279800 -13.508300 0.933600 0.000000 0.000000 0.000000 0.000000 0.000000 0.000000 -9.235200 8.350300 -18.915600 30.224400 0.000000 0.000000 -4.393400 5.328600 -13.770300 -10.509500 0.000000 0.000000 3.446500 10.461500 19.674700 7.652200 0.000000 0.000000 -0.253000 -11.653900 -4.130400 -11.436200 0.000000 0.000000 
-0.355783 0.277853 0.913981 4.988500 -5.671200 94.230100 1.432700 2.124500 0.032500 -1.005300 1.300300 0.134900 7.259600 0.401400 -0.556900 2.967400 0.088200 -0.339600 10.184000 1.791200 0.126000 4.803400 1.479600 2.260500 5.180300 7.381300 -6.894700 -6.490600 -23.911000 9.967200 0.000000 0.000000 1.145400 -16.039000 8.330900 -0.978000 0.000000 0.000000 0.000000 0.000000 0.000000 0.000000 5.859900 -7.260400 9.275200 13.560800 12.122100 -19.698600 0.000000 0.000000 -0.069600 -16.373600 -13.535000 0.943900 0.000000 0.000000 0.000000 0.000000 0.000000 0.000000 -9.170800 8.377900 -18.947500 30.227900 0.000000 0.000000 -4.391500 5.278900 -13.767400 -10.535400 0.000000 0.000000 3.512200 10.474500 19.665700 7.644900 0.000000 0.000000 -0.255500 -11.633800 -4.125700 -11.380300 0.000000 0.000000 
-0.355752 0.278229 0.913930 4.979700 -5.702300 94.270600 1.439700 2.128700 0.029200 -0.999200 1.301500 0.134100 7.228500 0.394300 -0.566000 2.964800 0.090400 -0.343300 10.256800 1.811300 0.151400 4.784600 1.484400 2.276400 5.177300 7.376700 -6.868400 -6.473800 -23.975800 9.950800 0.000000 0.000000 1.124500 -15.953300 8.290800 -1.008500 0.000000 0.000000 0.000000 0.000000 0.000000 0.000000 5.845800 -7.237600 9.181100 13.587200 12.097600 -19.668800 0.000000 0.000000 -0.102200 -16.475000 -13.596200 0.910300 0.000000 0.000000 0.000000 0.000000 0.000000 0.000000 -9.136100 8.395400 -18.950000 30.241900 0.000000 0.000000 -4.392900 5.205700 -13.818900 -10.557400 0.000000 0.000000 3.544400 10.481400 19.641800 7.658800 0.000000 0.000000 -0.262700 -11.632600 -4.149700 -11.366000 0.000000 0.000000 
-0.355714 0.278643 0.913867 4.996500 -5.759400 94.309600 1.469600 2.150600 0.025900 -0.984900 1.309600 0.134700 7.198300 0.387600 -0.569100 2.958500 0.086100 -0.338400 10.304700 1.831500 0.173400 4.751300 1.505100 2.297200 5.194800 7.376500 -6.860500 -6.444800 -24.012700 9.944700 0.000000 0.000000 1.107600 -15.973600 8.241500 -1.027200 0.000000 0.000000 0.000000 0.000000 0.000000 0.000000 5.829700 -7.262400 9.040800 13.624200 12.144900 -19.595800 0.000000 0.000000 -0.138500 -16.480500 -13.612300 0.887900 0.000000 0.000000 0.000000 0.000000 0.000000 0.000000 -9.100100 8.437900 -18.910300 30.303800 0.000000 0.000000 -4.424400 5.127900 -13.910100 -10.556600 0.000000 0.000000 3.608000 10.517400 19.617100 7.669300 0.000000 0.000000 -0.277000 -11.638800 -4.177200 -11.363100 0.000000 0.000000 
